<?xml version="1.0" encoding="UTF-8"?><!DOCTYPE svg PUBLIC "-//W3C//DTD SVG 1.1//EN" "http://www.w3.org/Graphics/SVG/1.1/DTD/svg11.dtd"><svg xmlns="http://www.w3.org/2000/svg" xmlns:xlink="http://www.w3.org/1999/xlink"><defs>
        <path id="a" d="M1407 3532v-1h36v1z"/>
        <path id="b" d="M1443.01 3535v-7l5 3.5z"/>
    
        <path id="a" d="M896 905v-2h14v2z"/>
        <path id="b" d="M910 907.99v-8l6.01 4z"/>
    </defs><symbol id="icon-arr-l" viewBox="0 0 284.935 284.936">
    <path d="M110.488 142.468L222.694 30.264c1.902-1.903 2.854-4.093 2.854-6.567s-.951-4.664-2.854-6.563L208.417 2.857C206.513.955 204.324 0 201.856 0c-2.475 0-4.664.955-6.567 2.857L62.24 135.9c-1.903 1.903-2.852 4.093-2.852 6.567 0 2.475.949 4.664 2.852 6.567l133.042 133.043c1.906 1.906 4.097 2.857 6.571 2.857 2.471 0 4.66-.951 6.563-2.857l14.277-14.267c1.902-1.903 2.851-4.094 2.851-6.57 0-2.472-.948-4.661-2.851-6.564L110.488 142.468z"/>
</symbol><symbol id="icon-arr-r-long" viewBox="0 0 41 7">
    
    <use xlink:href="#a" transform="translate(-1407 -3528)"/>
    <use xlink:href="#b" transform="translate(-1407 -3528)"/>
</symbol><symbol id="icon-arr-r" viewBox="0 0 284.935 284.936">
    <path d="M222.701 135.9L89.652 2.857C87.748.955 85.557 0 83.084 0c-2.474 0-4.664.955-6.567 2.857L62.244 17.133c-1.906 1.903-2.855 4.089-2.855 6.567 0 2.478.949 4.664 2.855 6.567l112.204 112.204L62.244 254.677c-1.906 1.903-2.855 4.093-2.855 6.564 0 2.477.949 4.667 2.855 6.57l14.274 14.271c1.903 1.905 4.093 2.854 6.567 2.854 2.473 0 4.663-.951 6.567-2.854l133.042-133.044c1.902-1.902 2.854-4.093 2.854-6.567s-.945-4.664-2.847-6.571z"/>
</symbol><symbol id="icon-arr-sm" viewBox="0 0 20 8">
    
    <use xlink:href="#a" transform="translate(-896 -900)"/>
    <use xlink:href="#b" transform="translate(-896 -900)"/>
</symbol><symbol id="icon-at" viewBox="0 0 512 512">
    <path d="M226.735 1.636C111.259 14.518 17.472 106.202 2.285 221.396c-21.518 163.24 111.938 302.116 273.589 289.849 59.464-4.513 115.124-31.086 158.736-71.759l3.746-3.492c4.309-4.018 4.544-10.768.526-15.076l-14.555-15.607c-4.018-4.309-10.767-4.544-15.076-.526l-7.803 7.277c-48.51 45.232-115.104 65.582-182.284 54.141-95.215-16.216-168.411-97.052-175.846-193.352-9.831-127.343 92.889-233.758 219.006-230.093 116.288 3.381 207.009 102.616 207.009 218.953v15.622c0 24.934-21.486 44.932-46.921 42.46C400.246 317.637 384 297.714 384 275.442v-94.108c0-5.892-4.776-10.667-10.667-10.667H352c-4.283 0-7.921 2.56-9.618 6.203-21.465-23.413-52.19-38.203-86.382-38.203-64.698 0-117.333 52.635-117.333 117.333S191.302 373.334 256 373.334c40.755 0 76.691-20.909 97.732-52.54 15.842 26.475 45.276 43.922 78.78 41.677 45.303-3.035 79.488-42.746 79.488-88.15V256C512 105.202 380.931-15.566 226.735 1.636zM256 330.667c-41.167 0-74.667-33.5-74.667-74.667s33.5-74.667 74.667-74.667 74.667 33.5 74.667 74.667-33.5 74.667-74.667 74.667z"/>
</symbol><symbol id="icon-back-arrow" viewBox="0 0 459 459">
    <path d="M178.5 140.25v-102L0 216.75l178.5 178.5V290.7c127.5 0 216.75 40.8 280.5 130.05-25.5-127.5-102-255-280.5-280.5z"/>
</symbol><symbol id="icon-circle-plus" viewBox="0 0 612 612">
    <path d="M319.909 486.818V319.909h166.909v-27.818H319.909V125.182h-27.818v166.909H125.182v27.818h166.909v166.909z"/>
    <path d="M612 306C612 137.004 474.995 0 306 0 137.004 0 0 137.004 0 306c0 168.995 137.004 306 306 306 168.995 0 306-137.005 306-306zm-584.182 0C27.818 152.36 152.36 27.818 306 27.818S584.182 152.36 584.182 306 459.64 584.182 306 584.182 27.818 459.64 27.818 306z"/>
</symbol><symbol id="icon-close" viewBox="0 0 612 612">
    <path d="M612 36.004L576.521.603 306 270.608 35.478.603 0 36.004l270.522 270.007L0 575.997l35.478 35.4L306 341.411l270.521 269.986 35.479-35.4-270.541-269.986z"/>
</symbol><symbol id="icon-fb" viewBox="0 0 430.113 430.114">
    <path d="M158.081 83.3v59.218h-43.385v72.412h43.385v215.183h89.122V214.936h59.805s5.601-34.721 8.316-72.685H247.54V92.74c0-7.4 9.717-17.354 19.321-17.354h48.557V.001h-66.021C155.878-.004 158.081 72.48 158.081 83.3z"/>
</symbol><symbol id="icon-file-add" viewBox="0 0 434.168 434.168">
    <path d="M332.318 230.196V34.967H40.93v364.235h134.038c9.616 0 17.483 7.867 17.483 17.483s-7.867 17.483-17.483 17.483H23.446c-9.616 0-17.483-7.867-17.483-17.483V17.483C5.963 7.867 13.831 0 23.446 0H349.8c9.616 0 17.483 7.867 17.483 17.483v212.713c0 9.616-7.867 17.483-17.483 17.483s-17.482-7.867-17.482-17.483zm90.039 42.543c-7.285-6.411-18.357-5.828-24.768 1.457l-95.867 106.648-48.079-46.331c-6.993-6.702-18.066-6.411-24.768.583s-6.411 18.066.583 24.768l61.191 58.86c3.205 3.205 7.576 4.954 12.238 4.954h.583c4.662-.291 9.324-2.331 12.238-5.828l107.814-120.052c6.702-7.576 6.119-18.648-1.165-25.059zM268.212 101.986H110.863c-9.616 0-17.483 7.867-17.483 17.483s7.867 17.483 17.483 17.483h157.349c9.616 0 17.483-7.867 17.483-17.483s-7.867-17.483-17.483-17.483zm17.484 113.641c0-9.616-7.867-17.483-17.483-17.483h-157.35c-9.616 0-17.483 7.867-17.483 17.483s7.867 17.483 17.483 17.483h157.349c9.616 0 17.484-7.867 17.484-17.483zm-174.833 75.761c-9.616 0-17.483 7.867-17.483 17.483s7.867 17.483 17.483 17.483h46.622c9.616 0 17.483-7.867 17.483-17.483s-7.867-17.483-17.483-17.483h-46.622z"/>
</symbol><symbol id="icon-gp" viewBox="0 0 491.858 491.858">
    <path d="M377.472 224.957H201.319v58.718H308.79c-16.032 51.048-63.714 88.077-120.055 88.077-69.492 0-125.823-56.335-125.823-125.824 0-69.492 56.333-125.823 125.823-125.823 34.994 0 66.645 14.289 89.452 37.346l42.622-46.328c-34.04-33.355-80.65-53.929-132.074-53.929C84.5 57.193 0 141.693 0 245.928s84.5 188.737 188.736 188.737c91.307 0 171.248-64.844 188.737-150.989v-58.718l-.001-.001z"/>
    <path d="M491.858 224.857h-36.031v-36.031h-30.886v36.031H388.91v30.883h36.031v36.032h30.886V255.74h36.031z"/>
</symbol><symbol id="icon-inst" viewBox="0 0 438.536 438.536">
    <path d="M421.981 16.562C410.941 5.519 397.711 0 382.298 0H56.248C40.83 0 27.604 5.521 16.561 16.562 5.52 27.6.001 40.828.001 56.243V382.29c0 15.413 5.518 28.644 16.56 39.683 11.043 11.04 24.272 16.563 39.687 16.563h326.046c15.41 0 28.644-5.523 39.684-16.563 11.043-11.039 16.557-24.27 16.557-39.683V56.243c-.001-15.418-5.514-28.639-16.554-39.681zM157.462 158.025c17.224-16.652 37.924-24.982 62.097-24.982 24.36 0 45.153 8.33 62.381 24.982 17.228 16.655 25.837 36.785 25.837 60.386 0 23.598-8.609 43.729-25.837 60.379-17.228 16.659-38.014 24.988-62.381 24.988-24.172 0-44.87-8.336-62.097-24.988-17.228-16.652-25.841-36.781-25.841-60.379 0-23.601 8.613-43.73 25.841-60.386zm231.403 212.564c0 4.945-1.718 9.083-5.141 12.416-3.433 3.33-7.519 4.996-12.282 4.996h-305.2c-4.948 0-9.091-1.666-12.419-4.996-3.333-3.326-4.998-7.471-4.998-12.416V185.575H89.08c-3.805 11.993-5.708 24.462-5.708 37.402 0 36.553 13.322 67.715 39.969 93.511 26.65 25.786 58.721 38.685 96.217 38.685 24.744 0 47.583-5.903 68.527-17.703 20.937-11.807 37.486-27.839 49.676-48.112 12.183-20.272 18.274-42.4 18.274-66.38 0-12.94-1.91-25.406-5.715-37.402h38.547V370.59h-.002zm0-254.963c0 5.52-1.903 10.184-5.716 13.99-3.805 3.809-8.466 5.711-13.989 5.711h-49.676c-5.517 0-10.185-1.903-13.99-5.711-3.806-3.806-5.708-8.47-5.708-13.99V68.522c0-5.33 1.902-9.945 5.708-13.848 3.806-3.901 8.474-5.854 13.99-5.854h49.676c5.523 0 10.185 1.952 13.989 5.854 3.812 3.903 5.716 8.518 5.716 13.848v47.104z"/>
</symbol><symbol id="icon-location" viewBox="0 0 80 80">
    <path d="M40 0C26.191 0 15 11.194 15 25c0 23.87 25 55 25 55s25-31.13 25-55C65 11.194 53.807 0 40 0zm0 38.8c-7.457 0-13.5-6.044-13.5-13.5S32.543 11.8 40 11.8c7.455 0 13.5 6.044 13.5 13.5S47.455 38.8 40 38.8z"/>
</symbol><symbol id="icon-od" viewBox="0 0 95.481 95.481">
    <path d="M43.041 67.254c-7.402-.772-14.076-2.595-19.79-7.064-.709-.556-1.441-1.092-2.088-1.713-2.501-2.402-2.753-5.153-.774-7.988 1.693-2.426 4.535-3.075 7.489-1.682.572.27 1.117.607 1.639.969 10.649 7.317 25.278 7.519 35.967.329 1.059-.812 2.191-1.474 3.503-1.812 2.551-.655 4.93.282 6.299 2.514 1.564 2.549 1.544 5.037-.383 7.016-2.956 3.034-6.511 5.229-10.461 6.761-3.735 1.448-7.826 2.177-11.875 2.661.611.665.899.992 1.281 1.376 5.498 5.524 11.02 11.025 16.5 16.566 1.867 1.888 2.257 4.229 1.229 6.425-1.124 2.4-3.64 3.979-6.107 3.81-1.563-.108-2.782-.886-3.865-1.977-4.149-4.175-8.376-8.273-12.441-12.527-1.183-1.237-1.752-1.003-2.796.071-4.174 4.297-8.416 8.528-12.683 12.735-1.916 1.889-4.196 2.229-6.418 1.15-2.362-1.145-3.865-3.556-3.749-5.979.08-1.639.886-2.891 2.011-4.014 5.441-5.433 10.867-10.88 16.295-16.322.359-.362.694-.746 1.217-1.305z"/>
    <path d="M47.55 48.329c-13.205-.045-24.033-10.992-23.956-24.218C23.67 10.739 34.505-.037 47.84 0c13.362.036 24.087 10.967 24.02 24.478-.068 13.199-10.971 23.897-24.31 23.851zm12.001-24.186c-.023-6.567-5.253-11.795-11.807-11.801-6.609-.007-11.886 5.316-11.835 11.943.049 6.542 5.324 11.733 11.896 11.709 6.552-.023 11.768-5.285 11.746-11.851z"/>
</symbol><symbol id="icon-play-icon" viewBox="0 0 314.068 314.068">
    <path d="M293.002 78.53C249.646 3.435 153.618-22.296 78.529 21.068 3.434 64.418-22.298 160.442 21.066 235.534c43.35 75.095 139.375 100.83 214.465 57.47 75.096-43.365 100.84-139.384 57.471-214.474zm-73.168 187.271c-60.067 34.692-136.894 14.106-171.576-45.973C13.568 159.761 34.161 82.935 94.23 48.26c60.071-34.69 136.894-14.106 171.578 45.971 34.685 60.076 14.098 136.886-45.974 171.57zm-6.279-115.149l-82.214-47.949c-7.492-4.374-13.535-.877-13.493 7.789l.421 95.174c.038 8.664 6.155 12.191 13.669 7.851l81.585-47.103c7.506-4.332 7.522-11.388.032-15.762z"/>
</symbol><symbol id="icon-remove-circle" viewBox="0 0 174.239 174.239">
    <path d="M87.12 0C39.082 0 0 39.082 0 87.12s39.082 87.12 87.12 87.12 87.12-39.082 87.12-87.12S135.157 0 87.12 0zm0 159.305c-39.802 0-72.185-32.383-72.185-72.185S47.318 14.935 87.12 14.935s72.185 32.383 72.185 72.185-32.384 72.185-72.185 72.185z"/>
    <path d="M120.83 53.414c-2.917-2.917-7.647-2.917-10.559 0L87.12 76.568 63.969 53.414c-2.917-2.917-7.642-2.917-10.559 0s-2.917 7.642 0 10.559l23.151 23.153-23.152 23.154a7.464 7.464 0 0 0 0 10.559 7.445 7.445 0 0 0 5.28 2.188 7.437 7.437 0 0 0 5.28-2.188L87.12 97.686l23.151 23.153a7.445 7.445 0 0 0 5.28 2.188 7.442 7.442 0 0 0 5.28-2.188 7.464 7.464 0 0 0 0-10.559L97.679 87.127l23.151-23.153a7.465 7.465 0 0 0 0-10.56z"/>
</symbol><symbol id="icon-search" viewBox="0 0 250.313 250.313">
    <path d="M244.186 214.604l-54.379-54.378c-.289-.289-.628-.491-.93-.76 10.7-16.231 16.945-35.66 16.945-56.554C205.822 46.075 159.747 0 102.911 0S0 46.075 0 102.911c0 56.835 46.074 102.911 102.91 102.911 20.895 0 40.323-6.245 56.554-16.945.269.301.47.64.759.929l54.38 54.38c8.169 8.168 21.413 8.168 29.583 0 8.168-8.169 8.168-21.413 0-29.582zm-141.275-44.458c-37.134 0-67.236-30.102-67.236-67.235 0-37.134 30.103-67.236 67.236-67.236 37.132 0 67.235 30.103 67.235 67.236s-30.103 67.235-67.235 67.235z" fill-rule="evenodd" clip-rule="evenodd"/>
</symbol><symbol id="icon-sld-arr-l" viewBox="0 0 129 129">
    <path d="M88.6 121.3c.8.8 1.8 1.2 2.9 1.2s2.1-.4 2.9-1.2c1.6-1.6 1.6-4.2 0-5.8l-51-51 51-51c1.6-1.6 1.6-4.2 0-5.8s-4.2-1.6-5.8 0l-54 53.9c-1.6 1.6-1.6 4.2 0 5.8l54 53.9z"/>
</symbol><symbol id="icon-sld-arr-r" viewBox="0 0 129 129">
    <path d="M40.4 121.3c-.8.8-1.8 1.2-2.9 1.2s-2.1-.4-2.9-1.2c-1.6-1.6-1.6-4.2 0-5.8l51-51-51-51c-1.6-1.6-1.6-4.2 0-5.8 1.6-1.6 4.2-1.6 5.8 0l53.9 53.9c1.6 1.6 1.6 4.2 0 5.8l-53.9 53.9z"/>
</symbol><symbol id="icon-tw" viewBox="0 0 612 612">
    <path d="M612 116.258a250.714 250.714 0 0 1-72.088 19.772c25.929-15.527 45.777-40.155 55.184-69.411-24.322 14.379-51.169 24.82-79.775 30.48-22.907-24.437-55.49-39.658-91.63-39.658-69.334 0-125.551 56.217-125.551 125.513 0 9.828 1.109 19.427 3.251 28.606-104.326-5.24-196.835-55.223-258.75-131.174-10.823 18.51-16.98 40.078-16.98 63.101 0 43.559 22.181 81.993 55.835 104.479a125.556 125.556 0 0 1-56.867-15.756v1.568c0 60.806 43.291 111.554 100.693 123.104-10.517 2.83-21.607 4.398-33.08 4.398-8.107 0-15.947-.803-23.634-2.333 15.985 49.907 62.336 86.199 117.253 87.194-42.947 33.654-97.099 53.655-155.916 53.655-10.134 0-20.116-.612-29.944-1.721 55.567 35.681 121.536 56.485 192.438 56.485 230.948 0 357.188-191.291 357.188-357.188l-.421-16.253c24.666-17.593 46.005-39.697 62.794-64.861z"/>
</symbol><symbol id="icon-vk" viewBox="0 0 548.358 548.358">
    <path d="M545.451 400.298c-.664-1.431-1.283-2.618-1.858-3.569-9.514-17.135-27.695-38.167-54.532-63.102l-.567-.571-.284-.28-.287-.287h-.288c-12.18-11.611-19.893-19.418-23.123-23.415-5.91-7.614-7.234-15.321-4.004-23.13 2.282-5.9 10.854-18.36 25.696-37.397 7.807-10.089 13.99-18.175 18.556-24.267 32.931-43.78 47.208-71.756 42.828-83.939l-1.701-2.847c-1.143-1.714-4.093-3.282-8.846-4.712-4.764-1.427-10.853-1.663-18.278-.712l-82.224.568c-1.332-.472-3.234-.428-5.712.144l-3.713.859-1.431.715-1.136.859c-.952.568-1.999 1.567-3.142 2.995-1.137 1.423-2.088 3.093-2.848 4.996-8.952 23.031-19.13 44.444-30.553 64.238-7.043 11.803-13.511 22.032-19.418 30.693-5.899 8.658-10.848 15.037-14.842 19.126-4 4.093-7.61 7.372-10.852 9.849-3.237 2.478-5.708 3.525-7.419 3.142-1.715-.383-3.33-.763-4.859-1.143-2.663-1.714-4.805-4.045-6.42-6.995-1.622-2.95-2.714-6.663-3.285-11.136-.568-4.476-.904-8.326-1-11.563-.089-3.233-.048-7.806.145-13.706.198-5.903.287-9.897.287-11.991 0-7.234.141-15.085.424-23.555.288-8.47.521-15.181.716-20.125.194-4.949.284-10.185.284-15.705s-.336-9.849-1-12.991a44.442 44.442 0 0 0-2.99-9.137c-1.335-2.95-3.289-5.232-5.853-6.852-2.569-1.618-5.763-2.902-9.564-3.856-10.089-2.283-22.936-3.518-38.547-3.71-35.401-.38-58.148 1.906-68.236 6.855-3.997 2.091-7.614 4.948-10.848 8.562-3.427 4.189-3.905 6.475-1.431 6.851 11.422 1.711 19.508 5.804 24.267 12.275l1.715 3.429c1.334 2.474 2.666 6.854 3.999 13.134 1.331 6.28 2.19 13.227 2.568 20.837.95 13.897.95 25.793 0 35.689-.953 9.9-1.853 17.607-2.712 23.127-.859 5.52-2.143 9.993-3.855 13.418-1.715 3.426-2.856 5.52-3.428 6.28-.571.76-1.047 1.239-1.425 1.427a21.387 21.387 0 0 1-7.71 1.431c-2.667 0-5.901-1.334-9.707-4-3.805-2.666-7.754-6.328-11.847-10.992-4.093-4.665-8.709-11.184-13.85-19.558-5.137-8.374-10.467-18.271-15.987-29.691l-4.567-8.282c-2.855-5.328-6.755-13.086-11.704-23.267-4.952-10.185-9.329-20.037-13.134-29.554-1.521-3.997-3.806-7.04-6.851-9.134l-1.429-.859c-.95-.76-2.475-1.567-4.567-2.427a30.301 30.301 0 0 0-6.567-1.854l-78.229.568c-7.994 0-13.418 1.811-16.274 5.428l-1.143 1.711c-.571.953-.859 2.475-.859 4.57 0 2.094.571 4.664 1.714 7.707 11.42 26.84 23.839 52.725 37.257 77.659 13.418 24.934 25.078 45.019 34.973 60.237 9.897 15.229 19.985 29.602 30.264 43.112 10.279 13.515 17.083 22.176 20.412 25.981 3.333 3.812 5.951 6.662 7.854 8.565l7.139 6.851c4.568 4.569 11.276 10.041 20.127 16.416 8.853 6.379 18.654 12.659 29.408 18.85 10.756 6.181 23.269 11.225 37.546 15.126 14.275 3.905 28.169 5.472 41.684 4.716h32.834c6.659-.575 11.704-2.669 15.133-6.283l1.136-1.431c.764-1.136 1.479-2.901 2.139-5.276.668-2.379 1-5 1-7.851-.195-8.183.428-15.558 1.852-22.124 1.423-6.564 3.045-11.513 4.859-14.846 1.813-3.33 3.859-6.14 6.136-8.418 2.282-2.283 3.908-3.666 4.862-4.142.948-.479 1.705-.804 2.276-.999 4.568-1.522 9.944-.048 16.136 4.429 6.187 4.473 11.99 9.996 17.418 16.56 5.425 6.57 11.943 13.941 19.555 22.124 7.617 8.186 14.277 14.271 19.985 18.274l5.708 3.426c3.812 2.286 8.761 4.38 14.853 6.283 6.081 1.902 11.409 2.378 15.984 1.427l73.087-1.14c7.229 0 12.854-1.197 16.844-3.572 3.998-2.379 6.373-5 7.139-7.851.764-2.854.805-6.092.145-9.712-.677-3.611-1.344-6.136-2.008-7.563z"/>
</symbol></svg>